<svg viewBox="0 0 97.3 32.18" xmlns="http://www.w3.org/2000/svg"><g fill="#010202"><path d="m18.68 0v32.18h-7.33l-4.35-14.63v14.63h-7v-32.18h7l4.69 14.49v-14.49z"/><path d="m47.08 0v32.18h-7.31v-21.73l-2.92 21.73h-5.19l-3.07-21.18v21.18h-7.33v-32.18h10.83q.48 2.9 1 6.84l1.18 8.16 1.92-15z"/><path d="m68.9 0v32.18h-8.36v-13.52h-2.54v13.52h-8.33v-32.18h8.33v11.51h2.51v-11.51z"/><path d="m97.3 0v32.18h-7.3v-21.73l-2.93 21.73h-5.19l-3.07-21.18v21.18h-7.32v-32.18h10.82c.32 1.93.66 4.21 1 6.84l1.18 8.16 1.93-15z"/></g></svg>