<svg enable-background="new 0 0 107 42" viewBox="0 0 107 42" xmlns="http://www.w3.org/2000/svg"><path d="m23.5 4.9v32.2h-7.3l-4.4-14.6v14.6h-7v-32.2h7l4.7 14.5v-14.5z"/><path d="m51.9 4.9v32.2h-7.3v-21.7l-2.9 21.7h-5.2l-3.1-21.2v21.2h-7.3v-32.2h10.9c.3 1.9.7 4.2 1 6.8l1.2 8.2 1.9-15z"/><path d="m73.8 4.9v32.2h-8.4v-13.5h-2.5v13.5h-8.4v-32.2h8.4v11.5h2.5v-11.5z"/><path d="m102.2 4.9v32.2h-7.3v-21.7l-2.9 21.7h-5.2l-3.1-21.2v21.2h-7.3v-32.2h10.8c.3 1.9.7 4.2 1 6.8l1.2 8.2 1.9-15z"/><path d="m107 42h-107v-42h107zm-105.8-1.2h104.7v-39.6h-104.7z"/></svg>