<svg version="1.1" xmlns="http://www.w3.org/2000/svg" xmlns:xlink="http://www.w3.org/1999/xlink" x="0" y="0" viewBox="0 0 107 42" xml:space="preserve" enable-background="new 0 0 107 42"><style type="text/css"></style><g id="レイヤー_1"><g><g><g><path d="M23.5,4.9v32.2h-7.3l-4.4-14.6v14.6h-7V4.9h7l4.7,14.5V4.9H23.5z"/><path d="M51.9,4.9v32.2h-7.3l0-21.7l-2.9,21.7h-5.2l-3.1-21.2l0,21.2h-7.3V4.9H37c0.3,1.9,0.7,4.2,1,6.8l1.2,8.2l1.9-15H51.9z"/><path d="M73.8,4.9v32.2h-8.4V23.6h-2.5v13.5h-8.4V4.9h8.4v11.5h2.5V4.9H73.8z"/><path d="M102.2,4.9v32.2h-7.3l0-21.7l-2.9,21.7h-5.2l-3.1-21.2l0,21.2h-7.3V4.9h10.8c0.3,1.9,0.7,4.2,1,6.8l1.2,8.2l1.9-15 H102.2z"/></g><g><path d="M107,42H0V0h107V42z M1.2,40.8h104.7V1.2H1.2V40.8z"/></g></g></g></g></svg>