<?xml version="1.0" encoding="utf-8"?>
<!-- Generator: Adobe Illustrator 22.1.0, SVG Export Plug-In . SVG Version: 6.00 Build 0)  -->
<svg version="1.1" xmlns="http://www.w3.org/2000/svg" xmlns:xlink="http://www.w3.org/1999/xlink" x="0px" y="0px"
	 viewBox="0 0 25 25" style="enable-background:new 0 0 25 25;" xml:space="preserve">
<style type="text/css">
	.st0{fill:none;stroke:#CCCCCC;stroke-width:1.2;stroke-linejoin:round;stroke-miterlimit:10;}
	.st1{fill:#1A1A1A;}
	.st2{fill:none;stroke:#000000;stroke-miterlimit:10;}
	.st3{fill:#010202;}
	.st4{fill:none;stroke:#010202;stroke-miterlimit:10;}
	.st5{clip-path:url(#SVGID_2_);}
	.st6{clip-path:url(#SVGID_4_);fill:#010202;}
</style>
<g id="レイヤー_1">
	<g>
		<circle class="st4" cx="12.5" cy="12.5" r="12"/>
		<g id="p_1_">
			<defs>
				<path id="SVGID_1_" d="M16.5,9c-0.8-0.7-2-1.2-3.4-1.2c-3.6,0-6,2.7-6,2.7l0.7,1.1c0,0,0.4,0,0.2-0.6c0.2-0.3,0.5-0.8,1.2-1.3
					V17c-0.3,0.1-0.7,0.2-0.4,0.5h2c0.3-0.3-0.1-0.4-0.4-0.5v-1.7c0,0,1.3,0.5,2.8,0.5c1.3,0,2.4-0.4,3.3-1.1
					c0.9-0.7,1.4-1.7,1.4-2.9C17.8,10.8,17.4,9.7,16.5,9 M13,15.2c-1.1,0-2.1-0.2-2.7-0.5v-1.6V9.2C11,8.7,12.1,8.5,13,8.5
					c1.1,0,1.9,0.4,2.5,1c0.6,0.6,0.9,1.5,0.9,2.4c0,0.9-0.3,1.7-0.9,2.3C14.9,14.8,14,15.2,13,15.2z"/>
			</defs>
			<use xlink:href="#SVGID_1_"  style="overflow:visible;fill-rule:evenodd;clip-rule:evenodd;fill:#010202;"/>
			<clipPath id="SVGID_2_">
				<use xlink:href="#SVGID_1_"  style="overflow:visible;"/>
			</clipPath>
			<g class="st5">
				<defs>
					<rect id="SVGID_3_" x="5.2" y="5" width="15" height="15"/>
				</defs>
				<use xlink:href="#SVGID_3_"  style="overflow:visible;fill:#010202;"/>
				<clipPath id="SVGID_4_">
					<use xlink:href="#SVGID_3_"  style="overflow:visible;"/>
				</clipPath>
				<rect x="7" y="7.7" class="st6" width="11" height="10"/>
			</g>
		</g>
	</g>
</g>
<g id="黒枠">
</g>
</svg>
