<svg version="1.1" xmlns="http://www.w3.org/2000/svg" xmlns:xlink="http://www.w3.org/1999/xlink" x="0" y="0" viewBox="0 0 22 22" xml:space="preserve" enable-background="new 0 0 22 22"><style type="text/css">.st3{fill:#010202}</style><g id="レイヤー_1"><g><g><path class="st3" d="M9.2,15.4c4.2,0,6.4-3.4,6.4-6.3c0-0.1,0-0.2,0-0.3c0.4-0.3,0.8-0.7,1.1-1.2c-0.4,0.2-0.8,0.3-1.3,0.4 c0.5-0.3,0.8-0.7,1-1.2C16,7,15.5,7.2,15,7.3c-0.4-0.4-1-0.7-1.6-0.7c-1.2,0-2.3,1-2.3,2.2c0,0.2,0,0.3,0.1,0.5 C9.2,9.2,7.6,8.3,6.5,7C6.3,7.3,6.2,7.7,6.2,8.1c0,0.8,0.4,1.5,1,1.9c-0.4,0-0.7-0.1-1-0.3c0,0,0,0,0,0c0,1.1,0.8,2,1.8,2.2 C7.8,12,7.6,12,7.4,12c-0.1,0-0.3,0-0.4,0C7.2,12.8,8,13.5,9,13.5c-0.8,0.6-1.7,1-2.8,1c-0.2,0-0.4,0-0.5,0 C6.7,15,7.9,15.4,9.2,15.4"/></g><g><path class="st3" d="M21,1v20H1V1H21 M22,0H0v22h22V0L22,0z"/></g></g></g></svg>