<svg version="1.1" xmlns="http://www.w3.org/2000/svg" xmlns:xlink="http://www.w3.org/1999/xlink" x="0" y="0" viewBox="0 0 62.1 20.7" xml:space="preserve" enable-background="new 0 0 62.1 20.7"><style type="text/css">.st1{fill:#1a1a1a}.st2{fill:none;stroke:#000;stroke-miterlimit:10}</style><g id="レイヤー_1"><g><g><g><g><path d="M27,7.4l0,6.9l-1.2,0l0-6.9l-1.3,0l0-1.1l3.8,0l0,1.1L27,7.4z"/></g><g><path d="M34.1,14.3l-1,0l-0.5-2.9L32,14.3l-1,0l-1.1-5.2l1.1,0l0.6,3.3l0.6-3.3l0.9,0l0.5,3.3l0.6-3.3l1.1,0L34.1,14.3z"/></g><g><path d="M39.8,14.3l-2,0c-0.5,0-0.7-0.2-0.7-0.6l0-3.9c0-0.4,0.2-0.6,0.7-0.6l2,0c0.4,0,0.7,0.2,0.7,0.6l0,1.9L40.1,12l-1.9,0 l0,1.4l1.1,0l0-0.9l1.1,0l0,1.1C40.4,14.1,40.2,14.3,39.8,14.3z M39.3,10l-1.1,0l0,1.2l1.1,0L39.3,10z"/></g><g><path d="M45.2,14.3l-2,0c-0.5,0-0.7-0.2-0.7-0.6l0-3.9c0-0.4,0.2-0.6,0.7-0.6l2,0c0.4,0,0.7,0.2,0.7,0.6l0,1.9L45.5,12l-1.9,0 l0,1.4l1.1,0l0-0.9l1.1,0l0,1.1C45.9,14.1,45.6,14.3,45.2,14.3z M44.7,10l-1.1,0l0,1.2l1.1,0L44.7,10z"/></g><g><path d="M48.9,14.3c-0.4,0-0.6-0.2-0.6-0.6l0-3.5l-0.6,0l0-1l0.6,0l0-1.4l1.2,0l0,1.4l0.8,0l0,1l-0.8,0l0,3.2l0.8,0l0,1 L48.9,14.3z"/></g></g></g><g><path class="st1" d="M11.8,14.2c3.9,0,6-3.2,6-5.9c0-0.1,0-0.2,0-0.3c0.4-0.3,0.8-0.7,1-1.1c-0.4,0.2-0.8,0.3-1.2,0.3 C18,7,18.3,6.6,18.5,6.1c-0.4,0.2-0.9,0.4-1.3,0.5c-0.4-0.4-0.9-0.7-1.5-0.7c-1.2,0-2.1,0.9-2.1,2.1c0,0.2,0,0.3,0.1,0.5 c-1.7-0.1-3.3-0.9-4.3-2.2C9.1,6.6,9,7,9,7.4c0,0.7,0.4,1.4,0.9,1.7c-0.3,0-0.7-0.1-1-0.3c0,0,0,0,0,0c0,1,0.7,1.8,1.7,2 c-0.2,0-0.4,0.1-0.6,0.1c-0.1,0-0.3,0-0.4,0c0.3,0.8,1,1.4,2,1.4c-0.7,0.6-1.6,0.9-2.6,0.9c-0.2,0-0.3,0-0.5,0 C9.5,13.8,10.6,14.2,11.8,14.2"/></g><rect y="-.3" class="st2" width="62" height="21"/></g></g></svg>