<?xml version="1.0" encoding="utf-8"?>
<!-- Generator: Adobe Illustrator 22.1.0, SVG Export Plug-In . SVG Version: 6.00 Build 0)  -->
<svg version="1.1" xmlns="http://www.w3.org/2000/svg" xmlns:xlink="http://www.w3.org/1999/xlink" x="0px" y="0px"
	 viewBox="0 0 25 25" style="enable-background:new 0 0 25 25;" xml:space="preserve">
<style type="text/css">
	.st0{fill:none;stroke:#CCCCCC;stroke-width:1.2;stroke-linejoin:round;stroke-miterlimit:10;}
	.st1{fill:#1A1A1A;}
	.st2{fill:none;stroke:#000000;stroke-miterlimit:10;}
	.st3{fill:#010202;}
	.st4{fill:none;stroke:#010202;stroke-miterlimit:10;}
	.st5{clip-path:url(#SVGID_2_);}
	.st6{clip-path:url(#SVGID_4_);fill:#010202;}
</style>
<g id="レイヤー_1">
	<g>
		<circle class="st4" cx="12.5" cy="12.5" r="12"/>
		<path class="st3" d="M10.9,17.4c4,0,6.2-3.3,6.2-6.2c0-0.1,0-0.2,0-0.3c0.4-0.3,0.8-0.7,1.1-1.1c-0.4,0.2-0.8,0.3-1.3,0.3
			c0.5-0.3,0.8-0.7,1-1.2c-0.4,0.3-0.9,0.4-1.4,0.5c-0.4-0.4-1-0.7-1.6-0.7c-1.2,0-2.2,1-2.2,2.2c0,0.2,0,0.3,0.1,0.5
			c-1.8-0.1-3.4-1-4.5-2.3C8.1,9.5,8,9.9,8,10.3c0,0.8,0.4,1.4,1,1.8c-0.4,0-0.7-0.1-1-0.3c0,0,0,0,0,0c0,1.1,0.8,1.9,1.8,2.2
			c-0.2,0.1-0.4,0.1-0.6,0.1c-0.1,0-0.3,0-0.4,0c0.3,0.9,1.1,1.5,2,1.5c-0.8,0.6-1.7,0.9-2.7,0.9c-0.2,0-0.4,0-0.5,0
			C8.5,17.1,9.7,17.4,10.9,17.4"/>
	</g>
</g>
<g id="黒枠">
</g>
</svg>
