<svg enable-background="new 0 0 350 116" viewBox="0 0 350 116" xmlns="http://www.w3.org/2000/svg"><g fill="#d2d2d2"><path d="m65.7 1.5v112.7h-23.8l-15.3-51.5c-.2-.6-.8-1.1-1.4-1.1-.1 0-.1 0-.2 0-.7.1-1.3.7-1.3 1.5v51.1h-22.2v-112.7h22.6l16.5 51.1c.2.6.8 1 1.4 1h.2c.7-.1 1.3-.7 1.3-1.5v-50.6zm1.5-1.5h-25.2v52.1l-16.8-52.1h-25.2v115.7h25.2v-52.6l15.7 52.6h26.4v-115.7z"/><path d="m167.8 1.5v112.7h-23.3v-76.6c0-.8-.6-1.4-1.4-1.5h-.1c-.7 0-1.4.6-1.5 1.3l-10.3 76.8h-16.1l-10.9-75.1c-.1-.7-.7-1.3-1.5-1.3h-.1c-.8.1-1.4.7-1.4 1.5v74.8h-23.2v-112.6h36.2c1.1 6.7 2.2 14.5 3.4 23.3l4.3 29.4c.1.7.7 1.3 1.5 1.3.7 0 1.4-.6 1.5-1.3l6.7-52.7zm1.5-1.5h-39.2l-6.9 54-4.2-29.4c-1.2-9.4-2.4-17.6-3.6-24.6h-38.9v115.7h26.3v-76.3l11 76.3h18.7l10.5-78.1v78.1h26.3z"/><path d="m246.3 1.5v112.7h-27.1v-47.1c0-.8-.7-1.5-1.5-1.5h-9c-.8 0-1.5.7-1.5 1.5v47.1h-27.1v-112.7h27.1v39.9c0 .8.7 1.5 1.5 1.5h9c.8 0 1.5-.7 1.5-1.5v-39.9zm1.5-1.5h-30.1v41.4h-9v-41.4h-30.1v115.7h30.1v-48.6h9v48.6h30.1z"/><path d="m348.5 1.5v112.7h-23.3v-76.6c0-.8-.6-1.4-1.4-1.5h-.1c-.7 0-1.4.6-1.5 1.3l-10.3 76.8h-16l-10.9-75c-.1-.7-.7-1.3-1.5-1.3h-.1c-.8.1-1.4.7-1.4 1.5v74.8h-23.3v-112.7h36.2c1.1 6.7 2.2 14.5 3.4 23.3l4.3 29.4c.1.7.7 1.3 1.5 1.3.7 0 1.4-.6 1.5-1.3l6.7-52.7zm1.5-1.5h-39.2l-6.9 54-4.3-29.4c-1.2-9.4-2.4-17.6-3.6-24.6h-38.9v115.7h26.3v-76.3l11 76.3h18.7l10.5-78.1v78.1h26.4z"/></g></svg>