<svg viewBox="0 0 10.25 8.23" xmlns="http://www.w3.org/2000/svg"><path d="m3.22 8.23a5.9 5.9 0 0 0 6-5.91v-.27a4.31 4.31 0 0 0 1.03-1.05 4.18 4.18 0 0 1 -1.25.3 2.06 2.06 0 0 0 1-1.15 4.27 4.27 0 0 1 -1.37.51 2.11 2.11 0 0 0 -3.63 1.42 1.84 1.84 0 0 0 .06.47 6 6 0 0 1 -4.35-2.17 2.07 2.07 0 0 0 .65 2.77 2.08 2.08 0 0 1 -1-.26 2.09 2.09 0 0 0 1.74 2.11 2.52 2.52 0 0 1 -.56 0 1.72 1.72 0 0 1 -.39 0 2.1 2.1 0 0 0 2 1.45 4.28 4.28 0 0 1 -2.65.87 4.1 4.1 0 0 1 -.5 0 6 6 0 0 0 3.22.93" fill="#010202"/></svg>